<svg xmlns="http://www.w3.org/2000/svg" viewBox="0 0 1180 644" font-family="Helvetica Neue, Arial, sans-serif">
<rect x="0" y="0" width="1180" height="644" fill="#ffffff"/>
<rect x="8" y="8" width="1164" height="628" rx="18" fill="#fbfcfe" stroke="#e5e9f0" stroke-width="1.5"/>
<defs><linearGradient id="meanG" x1="0" y1="0" x2="1" y2="1"><stop offset="0" stop-color="#e3f2fd"/><stop offset="1" stop-color="#bbdefb"/></linearGradient><linearGradient id="varG" x1="0" y1="0" x2="1" y2="1"><stop offset="0" stop-color="#f5e9fc"/><stop offset="1" stop-color="#e6ccf7"/></linearGradient><marker id="arrow" markerWidth="9" markerHeight="9" refX="7" refY="3" orient="auto"><path d="M0,0 L7,3 L0,6 Z" fill="#ef6c00"/></marker></defs>
<text x="590.0" y="46" text-anchor="middle" font-size="24" font-weight="700" fill="#1f2937">Heteroscedastic residual MLP surrogate (3-D)</text>
<text x="590.0" y="74" text-anchor="middle" font-size="15" fill="#6b7280">inputs  (log&#8321;&#8320;(p), a, &#948;)   &#8594;   two outputs:  mean and log-variance of  log&#8321;&#8320;(d&#772;),   d&#772; = mean&#7522; &#8730;(X&#7522;/Z&#7522;)</text>
<circle cx="150" cy="254" r="15" fill="#fff3e0" stroke="#f59e0b" stroke-width="2.5"/>
<text x="126" y="259" text-anchor="end" font-size="13" font-weight="600" fill="#1f2937">log&#8321;&#8320;(p)</text>
<circle cx="150" cy="300" r="15" fill="#fff3e0" stroke="#f59e0b" stroke-width="2.5"/>
<text x="126" y="305" text-anchor="end" font-size="13" font-weight="600" fill="#1f2937">a</text>
<circle cx="150" cy="346" r="15" fill="#fff3e0" stroke="#f59e0b" stroke-width="2.5"/>
<text x="126" y="351" text-anchor="end" font-size="13" font-weight="600" fill="#1f2937">&#948;</text>
<text x="150" y="220" text-anchor="middle" font-size="12" fill="#6b7280">input (3)</text>
<rect x="258" y="205" width="84" height="190" rx="12" fill="#e8f5e9" stroke="#2e7d32" stroke-width="2"/>
<text x="300" y="296" text-anchor="middle" font-size="14" font-weight="700" fill="#2e7d32">Linear</text>
<text x="300" y="316" text-anchor="middle" font-size="12.5" fill="#1f2937">3 &#8594; 128</text>
<line x1="165" y1="254" x2="258" y2="300" stroke="#111827" stroke-width="0.9" opacity="0.5"/>
<line x1="165" y1="300" x2="258" y2="300" stroke="#111827" stroke-width="0.9" opacity="0.5"/>
<line x1="165" y1="346" x2="258" y2="300" stroke="#111827" stroke-width="0.9" opacity="0.5"/>
<rect x="405.0" y="195.0" width="130" height="210" rx="12" fill="#eef2ff" stroke="#6366f1" stroke-width="2"/>
<text x="470" y="219.0" text-anchor="middle" font-size="13.5" font-weight="700" fill="#6366f1">Res block 1</text>
<text x="470" y="243.0" text-anchor="middle" font-size="11.5" fill="#1f2937">LayerNorm</text>
<text x="470" y="267.0" text-anchor="middle" font-size="11.5" fill="#1f2937">SiLU</text>
<text x="470" y="291.0" text-anchor="middle" font-size="11.5" fill="#1f2937">Linear 128</text>
<text x="470" y="315.0" text-anchor="middle" font-size="11.5" fill="#1f2937">LayerNorm</text>
<text x="470" y="339.0" text-anchor="middle" font-size="11.5" fill="#1f2937">SiLU</text>
<text x="470" y="363.0" text-anchor="middle" font-size="11.5" fill="#1f2937">Linear 128</text>
<path d="M 405.0 187.0 C 430 149.0, 510 149.0, 535.0 187.0" fill="none" stroke="#ef6c00" stroke-width="2.2" marker-end="url(#arrow)"/>
<text x="470" y="143.0" text-anchor="middle" font-size="11.5" font-weight="700" fill="#ef6c00">+ skip</text>
<rect x="605.0" y="195.0" width="130" height="210" rx="12" fill="#eef2ff" stroke="#6366f1" stroke-width="2"/>
<text x="670" y="219.0" text-anchor="middle" font-size="13.5" font-weight="700" fill="#6366f1">Res block 2</text>
<text x="670" y="243.0" text-anchor="middle" font-size="11.5" fill="#1f2937">LayerNorm</text>
<text x="670" y="267.0" text-anchor="middle" font-size="11.5" fill="#1f2937">SiLU</text>
<text x="670" y="291.0" text-anchor="middle" font-size="11.5" fill="#1f2937">Linear 128</text>
<text x="670" y="315.0" text-anchor="middle" font-size="11.5" fill="#1f2937">LayerNorm</text>
<text x="670" y="339.0" text-anchor="middle" font-size="11.5" fill="#1f2937">SiLU</text>
<text x="670" y="363.0" text-anchor="middle" font-size="11.5" fill="#1f2937">Linear 128</text>
<path d="M 605.0 187.0 C 630 149.0, 710 149.0, 735.0 187.0" fill="none" stroke="#ef6c00" stroke-width="2.2" marker-end="url(#arrow)"/>
<text x="670" y="143.0" text-anchor="middle" font-size="11.5" font-weight="700" fill="#ef6c00">+ skip</text>
<rect x="805.0" y="195.0" width="130" height="210" rx="12" fill="#eef2ff" stroke="#6366f1" stroke-width="2"/>
<text x="870" y="219.0" text-anchor="middle" font-size="13.5" font-weight="700" fill="#6366f1">Res block 3</text>
<text x="870" y="243.0" text-anchor="middle" font-size="11.5" fill="#1f2937">LayerNorm</text>
<text x="870" y="267.0" text-anchor="middle" font-size="11.5" fill="#1f2937">SiLU</text>
<text x="870" y="291.0" text-anchor="middle" font-size="11.5" fill="#1f2937">Linear 128</text>
<text x="870" y="315.0" text-anchor="middle" font-size="11.5" fill="#1f2937">LayerNorm</text>
<text x="870" y="339.0" text-anchor="middle" font-size="11.5" fill="#1f2937">SiLU</text>
<text x="870" y="363.0" text-anchor="middle" font-size="11.5" fill="#1f2937">Linear 128</text>
<path d="M 805.0 187.0 C 830 149.0, 910 149.0, 935.0 187.0" fill="none" stroke="#ef6c00" stroke-width="2.2" marker-end="url(#arrow)"/>
<text x="870" y="143.0" text-anchor="middle" font-size="11.5" font-weight="700" fill="#ef6c00">+ skip</text>
<line x1="342" y1="300" x2="405.0" y2="300" stroke="#111827" stroke-width="1.6" opacity="0.7"/>
<line x1="535.0" y1="300" x2="605.0" y2="300" stroke="#111827" stroke-width="1.6" opacity="0.7"/>
<line x1="735.0" y1="300" x2="805.0" y2="300" stroke="#111827" stroke-width="1.6" opacity="0.7"/>
<line x1="935.0" y1="300" x2="990" y2="300" stroke="#111827" stroke-width="1.6" opacity="0.7"/>
<circle cx="1050" cy="248" r="16" fill="url(#meanG)" stroke="#1e88e5" stroke-width="2.5"/>
<circle cx="1050" cy="352" r="16" fill="url(#varG)" stroke="#8e44ad" stroke-width="2.5"/>
<line x1="990" y1="300" x2="1034" y2="248" stroke="#1e88e5" stroke-width="1.6"/>
<line x1="990" y1="300" x2="1034" y2="352" stroke="#8e44ad" stroke-width="1.6"/>
<text x="1050" y="253" text-anchor="middle" font-size="14" font-weight="700" fill="#1e88e5">&#956;</text>
<text x="1050" y="222" text-anchor="middle" font-size="11.5" fill="#1f2937">mean log&#8321;&#8320;(d&#772;)</text>
<text x="1050" y="357" text-anchor="middle" font-size="14" font-weight="700" fill="#8e44ad">&#963;&#178;</text>
<text x="1050" y="384" text-anchor="middle" font-size="11.5" fill="#1f2937">log pred. variance</text>
<rect x="40" y="500" width="1100" height="130" rx="10" fill="#f7f9fc" stroke="#e5e9f0" stroke-width="1"/>
<text x="60" y="522" font-size="12.5" fill="#1f2937"><tspan font-weight="700">Structure:</tspan> input projection → 3 pre-activation residual blocks (width 128, LayerNorm + SiLU, identity skip) → two linear heads. Depth + skips fit the</text>
<text x="60" y="542" font-size="12.5" fill="#1f2937">(p, a, δ) interaction surface; LayerNorm (never BatchNorm) avoids the 1-D model's batch-noise failure.</text>
<text x="60" y="582" font-size="12.5" fill="#1f2937"><tspan font-weight="700">Training:</tspan> Adam, MSE warm-up on the mean head, then Gaussian NLL; early stopping on validation NLL; one conformal scale factor calibrates σ to 95%</text>
<text x="60" y="602" font-size="12.5" fill="#1f2937">coverage.</text>
</svg>